<?xml version="1.0" encoding="utf-8"?>
<svg viewBox="0 0 16 12" xmlns="http://www.w3.org/2000/svg">
  <path d="m0 2v8h2a3 3 0 0 0 2.5-1.3457 3 3 0 0 0 2.5 1.3457 3 3 0 0 0 2-.76758 3 3 0 0 0 2 .76758 3 3 0 0 0 2.5-1.3457 3 3 0 0 0 2.5 1.3457v-2a1 1 0 0 1 -1-1v-5h-2v2.7695a3 3 0 0 0 -2-.76953 3 3 0 0 0 -2 .76758 3 3 0 0 0 -2-.76758 3 3 0 0 0 -2.5 1.3457 3 3 0 0 0 -2.5-1.3457v-2zm2 4a1 1 0 0 1 1 1 1 1 0 0 1 -1 1zm5 0a1 1 0 0 1 1 1 1 1 0 0 1 -1 1 1 1 0 0 1 -1-1 1 1 0 0 1 1-1zm4 0a1 1 0 0 1 1 1 1 1 0 0 1 -1 1 1 1 0 0 1 -1-1 1 1 0 0 1 1-1z" style="fill: rgb(142, 239, 151);" transform="matrix(1, 0, 0, 1, 1.1102230246251565e-16, 0)"/>
</svg>